<svg id="Layer_1" data-name="Layer 1" xmlns="http://www.w3.org/2000/svg" viewBox="0 0 252.3 54.75"><title>title</title><path d="M232.43,206.57q0,2.1-2.7,3.55-.3,2.35-.85,5-2.15,6.15-7,6.15a4.31,4.31,0,0,1-3.5-1.75,5.76,5.76,0,0,1-1.3-3.75q0-.2.1-1.5a.27.27,0,0,0-.3-.2.66.66,0,0,0-.75.75,1.93,1.93,0,0,1-.3,1.3,17.23,17.23,0,0,1-3.85,2.75l-4.3,2.2a5.4,5.4,0,0,0-4.25-2,3.59,3.59,0,0,0-2.6,1l-1.8,2.23-.4-.1v-.7q0-.81,1.9-3.37a7.15,7.15,0,0,1,2.45-2,6.4,6.4,0,0,1,3-.86,6.81,6.81,0,0,1,4.95,2.5h.15v-3.1l-1.95-.2a4.67,4.67,0,0,1-3.15-2.3,7.18,7.18,0,0,1-1.15-3.85q0-4.3,5.05-5.7a9.56,9.56,0,0,0,.95-.5l-.2-.3a2.16,2.16,0,0,0-.85-.15s-.06,0-.08.13-.06.13-.12.13a7,7,0,0,1-1.9-.3q-2.25-.4-5.65-3.55-1-.45-2.35-1.2a7.19,7.19,0,0,1-2.4-3.1,9.34,9.34,0,0,1-.85-3.85,6.43,6.43,0,0,1,1.48-4,4.08,4.08,0,0,1,6.15-.8,3,3,0,0,1,1.18,2.3,2.3,2.3,0,0,1-.6,1.58,1.87,1.87,0,0,1-1.45.67,1.68,1.68,0,0,1-1.45-.55v-.5q0-.1.3-.15a1.82,1.82,0,0,1,.6.23,2.07,2.07,0,0,0,.55.23q1.3,0,1.3-1.2a2.55,2.55,0,0,0-.87-1.95,3,3,0,0,0-2.08-.8,3.6,3.6,0,0,0-3,1.73,5.89,5.89,0,0,0-1.25,3.48,6.88,6.88,0,0,0,3.15,6.1h.5q-.7-3.35-.7-3.5a5.2,5.2,0,0,1,1-3.2l2,1.5a4.29,4.29,0,0,0,2.25.8q1.4,0,5-2.05,5-2.85,8.45-2.85a8.13,8.13,0,0,1,5.88,2.35,7.76,7.76,0,0,1,2.42,5.8,10,10,0,0,1-.65,3l.15.2q2.15-1.65,2.15-5.4a9.08,9.08,0,0,0-1.15-4.2q-3.05-5.8-11.5-5.8a16.73,16.73,0,0,0-5.8,1.15q-3.8,1.4-3.8,3.75,0,1.6,1.7,1.6a1.27,1.27,0,0,0,1.35-1.1q.2-.9.35-1.4a.83.83,0,0,1,.65.85,2.36,2.36,0,0,1-.9,1.73,2.74,2.74,0,0,1-1.85.83,1.8,1.8,0,0,1-1.5-.83,3,3,0,0,1-.6-1.83q0-2.2,4-4.25a14.5,14.5,0,0,1,6.2-1.85,16.1,16.1,0,0,1,9.65,2.45,9.58,9.58,0,0,1,4.45,8.5,16.4,16.4,0,0,1-.5,2.4,6.71,6.71,0,0,1-2.3,3.8,24.75,24.75,0,0,0-2.75,2.4.62.62,0,0,0,.15.25,10.26,10.26,0,0,1,3.1,2.65,13.82,13.82,0,0,1,1.5,3.8,7.89,7.89,0,0,0,.15,1q.1.45.15.45a2.69,2.69,0,0,0,1.75-2.75,4.59,4.59,0,0,0-3.8-4.85,1.36,1.36,0,0,1-.6-.35,1,1,0,0,1,.6-.35,4.19,4.19,0,0,1,3.55,1.75A6.18,6.18,0,0,1,232.43,206.57Zm-9.85-8.15v-3a41.57,41.57,0,0,0-3.4-2.45l-3.45-2.4c0-.1,0-.15.2-.15a11,11,0,0,1,2.85.85,10.92,10.92,0,0,0,2.85.85c.13,0,.18-.05.15-.15q-1.65-3.85-4.4-3.85a5.81,5.81,0,0,0-3.9,1.8q-1.2,1.1-3.65,3.4a8.91,8.91,0,0,1-5.4,1.8,4.88,4.88,0,0,1-3-1.3l-.1.25a5.83,5.83,0,0,0,.9,2.2,2.88,2.88,0,0,0,2.2.75,8.7,8.7,0,0,0,4.75-1.65q1.1-.75,4-3.1,2-1.65,2.85-1.65a.53.53,0,0,1,.45.2v.3q-.6.5-.6,2.5v.85a6.89,6.89,0,0,0,0,.85V200a6.65,6.65,0,0,0,1.55-.85q1.05-.75,1.05-1.3a2.88,2.88,0,0,0-.85-1.65l0-.3a2.51,2.51,0,0,0-.07-.43,3.14,3.14,0,0,1-.08-.37,1.94,1.94,0,0,1,.38-1q.38-.57.77-.57,1.45,0,1.45,2.15a7.33,7.33,0,0,1-.25,1.38q-.25,1-.25,1.07a9.84,9.84,0,0,0,2.55,1.45A2,2,0,0,0,222.58,198.42Zm-11.65,2.7v-1a15.22,15.22,0,0,0-.15-3.3,9.32,9.32,0,0,1-4.75,1.45q-.25,0-1.2-.1t-1.25-.1a12,12,0,0,0,2.9,2.1,7.42,7.42,0,0,0,3.4,1l.55,0Zm.1,12.6v-6.65c-.13-.23-.28-.35-.45-.35q-4.45,0-4.45,2.9a3.91,3.91,0,0,0,1.45,2.93,4.48,4.48,0,0,0,3.05,1.32A.54.54,0,0,0,211,213.72Zm13.85-3.9a15.43,15.43,0,0,0-.7-3.7q-.8-2.9-1.65-2.9s-.45.33-1.45,1a4.94,4.94,0,0,1-2.5,1q-1.25,0-1.25-1.15a2.39,2.39,0,0,1,1.6-2.1,6.19,6.19,0,0,1,2.75-.75,1.33,1.33,0,0,0,.35-.9q-.25-.1-1.58-.83a11.44,11.44,0,0,0-1.42-.73,3.84,3.84,0,0,0-1,.73q-.88.73-1,.88-1.25.55-1.25.8l.15,5.7h.35A4.94,4.94,0,0,1,219.4,208a6.26,6.26,0,0,1,2,2.9,5.59,5.59,0,0,0,.6-.7,4.72,4.72,0,0,1-1.65-3.4,1.09,1.09,0,0,1,1.15-1.25,1.52,1.52,0,0,1,1.33.7,2.65,2.65,0,0,1,.57,1.65q0,.2-.4,2.35a2.9,2.9,0,0,1,.67.3,1.64,1.64,0,0,0,.93.25A1.61,1.61,0,0,0,224.88,209.82Zm-7.25.4a3.17,3.17,0,0,0-.48-1.57,1.66,1.66,0,0,0-1-.93l-.15.3v5.5h.5Q217.63,213.52,217.63,210.22Zm1.65-14.5a1.39,1.39,0,0,0-.75-1.4,1.15,1.15,0,0,0-.35.7q0,1.65.75,2A3.25,3.25,0,0,0,219.28,195.72Zm1.4,6.85h-.55a3.84,3.84,0,0,0-1.4.85v.3l.15.15h.1a1.68,1.68,0,0,0,1-.47A2.51,2.51,0,0,0,220.68,202.57Zm4.1,8.85a16.84,16.84,0,0,1-2.1-.75.88.88,0,0,0-.67.48,1.58,1.58,0,0,0-.33.88q0,.1.05.55c0,.3,0,.5,0,.6a11.05,11.05,0,0,1-.6,2.9,11.39,11.39,0,0,0-.6,2.6q0,1.35,1,1.35,1.55,0,2.55-3.7A22.86,22.86,0,0,0,224.78,211.42Zm-2.3-3.2a3.13,3.13,0,0,0-.8-2,4.37,4.37,0,0,1-.65.35v.35a4,4,0,0,0,.45,1.38,2.56,2.56,0,0,0,.75,1.13A3,3,0,0,0,222.48,208.22Z" transform="translate(-196.43 -180.42)"/><path d="M250.63,217.13l-3.35,4.14a6.94,6.94,0,0,1-2-2.19,5.22,5.22,0,0,1-1-2.71,34.81,34.81,0,0,0-4.95,4.9,40.68,40.68,0,0,0-4.75-4.35,2.55,2.55,0,0,0,1-1.65q0-2,0-12.45a3.11,3.11,0,0,0-.85-2.3l-1.45.85-.3-.85q1.6-1.15,1.95-1.45a26.26,26.26,0,0,0,2.15-2.2,5.14,5.14,0,0,1,2,2.9q0,.25.15,1.6a43.5,43.5,0,0,0,5.2-4.6l.05-.05q.2.35,1.32,1.83t1.33,1.48a10.36,10.36,0,0,1,1.15-1q.45,0,.45.55,0,.1-.6.65t-.6.65q0,3.2,0,14.35a2.82,2.82,0,0,0,1.5,2.2q.1.05.52-.37c.28-.28.46-.43.52-.43S250.49,216.79,250.63,217.13Zm-6.5-14.86-1.6-2.35-3.2,2.65v13.25l2,2.2,2.75-2.55a27.48,27.48,0,0,0,.1-3.3Q244.23,208.87,244.13,202.27Z" transform="translate(-196.43 -180.42)"/><path d="M258.58,218.22a10.36,10.36,0,0,0-3.35,3.55,7.7,7.7,0,0,0-3.15-3.35,4.64,4.64,0,0,0,1.4-3.7q0-2.15.05-17.75a9.94,9.94,0,0,0-.85-3.9q-.55-1.2-1.7-3.6a8.11,8.11,0,0,1,4.1,4.75,16.53,16.53,0,0,1,3.05-7.56q1.45-2.14,3.2-2.14a1.39,1.39,0,0,1,.8.34c.3.23.45.44.45.63q0,1.07-.9,1.07a2,2,0,0,1-.6-.35,2.09,2.09,0,0,0-.6-.35q-.8,0-1.85,2.2a13.26,13.26,0,0,0-1.05,3,34.9,34.9,0,0,0-.55,6.4V215A4.19,4.19,0,0,0,258.58,218.22Z" transform="translate(-196.43 -180.42)"/><path d="M267.23,218.22a10.36,10.36,0,0,0-3.35,3.55,7.7,7.7,0,0,0-3.15-3.35,4.64,4.64,0,0,0,1.4-3.7q0-2.15.05-17.75a9.94,9.94,0,0,0-.85-3.9q-.55-1.2-1.7-3.6a8.11,8.11,0,0,1,4.1,4.75,16.53,16.53,0,0,1,3.05-7.56q1.45-2.14,3.2-2.14a1.39,1.39,0,0,1,.8.34c.3.23.45.44.45.63q0,1.07-.9,1.07a2,2,0,0,1-.6-.35,2.09,2.09,0,0,0-.6-.35q-.8,0-1.85,2.2a13.26,13.26,0,0,0-1.05,3,34.9,34.9,0,0,0-.55,6.4V215A4.19,4.19,0,0,0,267.23,218.22Z" transform="translate(-196.43 -180.42)"/><path d="M279.62,198.82q-3.2,3.55-3.2,6a.45.45,0,0,0,.15.4,1.5,1.5,0,0,1,.9-.55q.75,0,.75,1a1,1,0,0,1-1.15,1.15q-1.55,0-1.55-1.95a5.1,5.1,0,0,1,.33-1.25,5.85,5.85,0,0,0,.33-1.15,1.83,1.83,0,0,0-1-1.5L273.52,200l-.45.25q-.05,5,0,14.9,2.75,2.75,3.4,2.75.25,0,.88-.77A2.39,2.39,0,0,0,278,216a2.57,2.57,0,0,0-.1-.37.7.7,0,0,1,0-.43,1.18,1.18,0,0,1,.65-.1q.5,0,.5.55,0,1.65-5,5.65a17.09,17.09,0,0,0-5.2-4.24,7.38,7.38,0,0,0,1-3.09l0-10.93a6.06,6.06,0,0,1-.25-1.1,2.4,2.4,0,0,0-.8-1.3,41.12,41.12,0,0,0,4-1.9,13,13,0,0,0,2.5-2.3q2.1,2.65,3.15,2.65l1.1-.55Z" transform="translate(-196.43 -180.42)"/><path d="M295.32,199.32,293,202.07a5,5,0,0,0-1.4,3.2q0,.65.35.65a1,1,0,0,0,.28-.12.81.81,0,0,1,.32-.12q.9,0,.9.85,0,1-1.1,1a1.77,1.77,0,0,1-1.45-.8,2.85,2.85,0,0,1-.6-1.75,3.19,3.19,0,0,1,1-2.25q-.55-.65-2-2.2-1.45.9-1.45,1.6v14.1a4.72,4.72,0,0,1,2.6,2.3l-3.1,3.3-2-2.35a7.84,7.84,0,0,0-2.55-1.8,2.7,2.7,0,0,0,1.3-2.3v-13q0-2.2-1.35-2.2a2.05,2.05,0,0,0-1.2.75l-.35-.65,4.15-3.65q2,.65,2.85,3.75l3.7-3.75q.65.79,2.25,2.85a3,3,0,0,0,.85-.65Z" transform="translate(-196.43 -180.42)"/><path d="M312.47,216.42a8.5,8.5,0,0,0-3.75,5.35,2.92,2.92,0,0,1-1.92-1.48,3.83,3.83,0,0,1-.77-2.43,5.71,5.71,0,0,0-2.3,1.7,14.43,14.43,0,0,0-2.1,2.45q-2.5-2.8-3.55-2.8a5.56,5.56,0,0,0-1.55.35v-.3q0-.3.72-1a4.22,4.22,0,0,0,.78-.83,12.66,12.66,0,0,0,0-1.65v-3.2q-.05-.7,0-.85a4.44,4.44,0,0,0-1.65-2.05q.95-.1,1.7-.25a7.08,7.08,0,0,0,2.65-1,3.88,3.88,0,0,1-1.9-1.62,4.35,4.35,0,0,1-.8-2.37,4.71,4.71,0,0,1,1.15-3.15,16.8,16.8,0,0,1,2.55-2.15,13.74,13.74,0,0,0,2.6-2.3,6.37,6.37,0,0,0,5.8,3.35l.15.25a3.85,3.85,0,0,0-.8,2.3v12.45l1.05,1.4q.5-.2,1.85-.65ZM299,204.12a3.57,3.57,0,0,0,1.13,2.78,4.17,4.17,0,0,0,2.93,1,2.52,2.52,0,0,0,1.63-.8,3,3,0,0,0,1-1.55,6.69,6.69,0,0,0,0-1.15q0-3.65-3.35-3.65a3.36,3.36,0,0,0-2.45.92A3.23,3.23,0,0,0,299,204.12Zm6.8,4a8.76,8.76,0,0,0-1.45.55,4.74,4.74,0,0,1-2.1.3q-.6,0-.6,2.4v1.4q0,.15.05.75v3a6.24,6.24,0,0,0,2.25,1.2q.65,0,1.9-1.65Z" transform="translate(-196.43 -180.42)"/><path d="M329.77,216.42a2,2,0,0,0-.8-.15,3.81,3.81,0,0,0-2.82,1.47,5,5,0,0,0-1.43,3l-.1.25a5.62,5.62,0,0,0-3.95-2.7v2.65q0,6.6.65,8.75a5.81,5.81,0,0,0,.5,1,3.58,3.58,0,0,1,.5,1.15,0,0,0,0,1,0,0q-1.3,0-2.35-2.25a13,13,0,0,1-1.05-3.4,16.93,16.93,0,0,1-1.4,5.25q-1.55,3.7-3.15,3.7a2,2,0,0,1-.85-.15,6.65,6.65,0,0,0,3-5.75q0-.45.05-2.35V218h-.6a9,9,0,0,1-1.2-.05c-.17,0-.1,0,.2,0q-.4.1-.55.75a1.58,1.58,0,0,1,1,1.35q0,.85-1.1.85t-1.05-1.25q0-3.1,3.4-3.5,0-.6.05-2.85V202.52q-1.35-2.4-1.9-2.4l-1.35.6c-.17-.07-.25-.27-.25-.6q.5-.35,2.2-1.65a20.69,20.69,0,0,1,1.85-1.35q1.2,0,3.5,3.65,2.25-1.8,5-3.8a14.84,14.84,0,0,0,4.4,4.2,3.6,3.6,0,0,0-.85,2.2v11.25a3.67,3.67,0,0,0,.25.9A3.78,3.78,0,0,1,329.77,216.42ZM325.72,203l-2.45-2.45q-1.5.95-2.55,1.75l.1,13.45a6.57,6.57,0,0,1,4.15,1.8l.75-.7Z" transform="translate(-196.43 -180.42)"/><path d="M377.47,190.57a5.79,5.79,0,0,1-.45,2.6,21.07,21.07,0,0,1-1.65,2,3.55,3.55,0,0,1,.75,2.35,4.67,4.67,0,0,1-1.58,3.63,5.63,5.63,0,0,1-3.92,1.42,8.94,8.94,0,0,1-2.4-.4q-1.8-.5-1.85-1.25l.5-.5a10.26,10.26,0,0,0,2.9,1.45,6.49,6.49,0,0,0,3.6-1,3.47,3.47,0,0,0,1.85-3.05q0-1.65-.75-2.15a6.26,6.26,0,0,1-3.6,1.05q-2.7,0-2.7-1.8,0-1.55,2.7-1.55a5.89,5.89,0,0,1,3.8,1.2,3.79,3.79,0,0,0,2-3.95q-.25-4.85-5.7-7.05a25.7,25.7,0,0,0-9.55-1.55,19.67,19.67,0,0,0-6.6,1.25q-4.1,1.45-5.4,3.65a17.79,17.79,0,0,1,2-.1,55.53,55.53,0,0,1,7.5.75,55.47,55.47,0,0,0,7.5.75,7.82,7.82,0,0,0,4.9-1.8,6.55,6.55,0,0,1-2.4,4.52,7.36,7.36,0,0,1-4.9,1.83,46.7,46.7,0,0,1-6.92-.75,46.7,46.7,0,0,0-6.92-.75,3.82,3.82,0,0,0-2.25.6,2.5,2.5,0,0,0-.3,1.3,5.25,5.25,0,0,0,1.05,2.9,3.21,3.21,0,0,0,2.3,1.65,13.84,13.84,0,0,1,8.2-4.5l-.05.25a13.59,13.59,0,0,0-4.85,5q2.4.05,6.63-2.72t6.08-2.78h.2l-.1.5a10.26,10.26,0,0,0-2.65,1.25,3.6,3.6,0,0,0-1,2.7l-.15,7.3a.21.21,0,0,1,0,.15,5,5,0,0,1,3.4,2.4,7.26,7.26,0,0,1,1.55,4.1q0,2.85-1.65,2.85-2,0-2-3.35a6.14,6.14,0,0,1,1-3.8,5.44,5.44,0,0,0-2.3-1.4v6.7q0,5.4,2.5,5.4,1.25,0,2.75-2.1l.4,0q-1.6,3.55-4.2,3.55a8.53,8.53,0,0,1-3.2-1.35l-1.7,2a5,5,0,0,0,3.15.9,7.21,7.21,0,0,0,6.15-2.8,10.71,10.71,0,0,0,1.9-6.65q0-5.35-2.15-5.35a3,3,0,0,0-1.6.5l-.5-.5a3.41,3.41,0,0,1,2.6-.95,4.05,4.05,0,0,1,3.75,2.2,8.81,8.81,0,0,1,1,4.5,9,9,0,0,1-3.6,7.35,12.59,12.59,0,0,1-8,2.6,15.57,15.57,0,0,1-4.3-.6,12,12,0,0,1-4.35.9h-.55l-.1-.2,1.35-.65a6.32,6.32,0,0,0,1.15-.95,14.31,14.31,0,0,1-7.05-8.4q-1.5.95-1.5,3.55a4.54,4.54,0,0,0,.9,2.8,2.92,2.92,0,0,0,2.5,1.35q.55,0,1.6-1.15l.5.3a2.44,2.44,0,0,1-2.2,1.5,3.5,3.5,0,0,1-3.05-1.6,5.79,5.79,0,0,1-1-3.45,5.31,5.31,0,0,1,1.85-4.3,18.55,18.55,0,0,1-.35-3.9,13.39,13.39,0,0,1,2.3-8.25q-3.4-2.65-3.4-5.55v-1q-4.1,1.7-4.1,5A2.68,2.68,0,0,0,344,199.5a4.18,4.18,0,0,0,2.6.88,2.19,2.19,0,0,0,1.3-.8,5.13,5.13,0,0,0,1-1.35l.3.55q-1.5,2.35-3.25,2.35a3.63,3.63,0,0,1-2.8-1.27,4.24,4.24,0,0,1-1.15-2.92,9.25,9.25,0,0,1,6.25-9.65Q349.77,184,355,182a24.26,24.26,0,0,1,8.5-1.6,17.4,17.4,0,0,1,9.15,2.5Q377.47,185.82,377.47,190.57Zm-19,7.8q-1.45.4-4.55,1.05a12.22,12.22,0,0,0-.8,5.6l0,2.3q1.05-1.2,5.3-2Zm-5.3,9.9a24.52,24.52,0,0,0,1.42,5.9q1.47,4.65,2.47,4.65.6,0,1.05-2.75a46.45,46.45,0,0,0,.35-6.6v-3.35Q356.67,206.07,353.17,208.27Zm13-.45a5.26,5.26,0,0,0-.7,3.2,4,4,0,0,0,.38,1.45q.38.9.83,1a2.33,2.33,0,0,0,.85-1.9,7,7,0,0,0-.45-2A4.31,4.31,0,0,0,366.12,207.82ZM369,195q0-.8,2.3-.8a4.34,4.34,0,0,1,2.5.75,3.72,3.72,0,0,1-2.5,1Q369,195.92,369,195Z" transform="translate(-196.43 -180.42)"/><path d="M386.57,189.77a3.5,3.5,0,0,1-1.72,2.72,5.59,5.59,0,0,1-3.28,1.28,2.82,2.82,0,0,1-1.85-.45l-.37-.48q-.33-.42-.47-.42a2.88,2.88,0,0,0-1.05.5l-.2-.4q3.45-3,4.15-4.55l.2.05q0,.3.1.8,0,2.7,2,2.7a1.76,1.76,0,0,0,1.3-.5l.15-.3a8.77,8.77,0,0,0-.65-1.1q0-1,.85-1T386.57,189.77Zm.9,28.2q-.7.65-3.65,3.7a2.82,2.82,0,0,1-2-1.48,4.77,4.77,0,0,1-.9-2.58v-15.2q0-1.8-1.4-1.8-.35,0-.35.4a2.18,2.18,0,0,0,.1.45,2.27,2.27,0,0,1,.1.45q0,.3-.4.3-.75,0-.75-.85t4-4.45l3.55,3.7q-1.1.8-1.1,1.4,0,10.45-.2,14.85.7,1.3,1.45,1.3a2.7,2.7,0,0,0,.7-.45,2.7,2.7,0,0,1,.7-.45Q387.27,217.37,387.47,218Z" transform="translate(-196.43 -180.42)"/><path d="M415.27,216.82a39.65,39.65,0,0,1-3.3,4.4h-1.05a2.59,2.59,0,0,1-2.2-1.65,5.69,5.69,0,0,1-.75-2.8l-.05-14.2-1.55-2.35-2.65,2.25v12.35a4.44,4.44,0,0,0,.3,2l1,1.35a7.83,7.83,0,0,0-3.1,3.35,10.13,10.13,0,0,0-3.05-3.35,5.75,5.75,0,0,0,1.2-3.15V202.62q-1.25-1.5-2.3-2.65a21.33,21.33,0,0,0-2.75,2.26l.05,13a4.42,4.42,0,0,0,1.35,3,9.65,9.65,0,0,0-3.4,3.26,6.18,6.18,0,0,0-3-3.27,3.64,3.64,0,0,0,1.3-2.41q0-.55,0-2.61v-9.9a4.28,4.28,0,0,0-.12-1.23,2.84,2.84,0,0,0-.75-1q-.62-.6-.92-.6c-.07,0-.23.13-.5.4s-.45.4-.55.4q-.45,0-.45-.55,0-.85,3.85-3.85a10.75,10.75,0,0,1,3,3.8q1.15-.85,4.75-4.1.35,1.1,3.65,4.7a26.82,26.82,0,0,0,4.8-4.7q3,4,4.3,4.81a6,6,0,0,0-1,1.45v12a2.82,2.82,0,0,0,.67,1.83,2.37,2.37,0,0,0,1.63.93h-.3c.23,0,.47-.17.7-.5q.2-.25.55-.75Q415.27,216.22,415.27,216.82Z" transform="translate(-196.43 -180.42)"/><path d="M428.17,199.82l-.25.45a10.45,10.45,0,0,0-4.2,4.9,14.28,14.28,0,0,0-1.7,6.35q0,2.1,1.15,2l.35-.15a.81.81,0,0,1-.3-.65q0-.6.8-1,.6.1,1.05,1.1a2,2,0,0,1-2,1.6q-1.85,0-1.85-2.95,0-2.1,2.5-8a20.56,20.56,0,0,1-2.2-3.65q-.3.2-1.2.7l-.05,16.1a30.35,30.35,0,0,0,3.45,2q2-1,1.85-2.7l.4-.15q.6,0,.6.8,0,1-1.8,2.9a12.82,12.82,0,0,1-2.75,2.3l-6.2-3.55a3,3,0,0,0,1.25-2.5l0-13a4,4,0,0,0-1.15-3,11.7,11.7,0,0,0,4.4-.67,11.46,11.46,0,0,0,3.3-2.83,9.87,9.87,0,0,1,1.1,2.25q.8,1.85,1.35,1.85-.15,0,1.35-.75h.45Z" transform="translate(-196.43 -180.42)"/><path d="M448.72,193.47q0,1.05-.8,1.05-1.1,0-1.1-1.35a.42.42,0,0,0-.35-.25,1.49,1.49,0,0,0-1.25.7,2.68,2.68,0,0,0-.5,1.6q0,.3-.05,1.25t0,1.25a3,3,0,0,1-.5,1.85,10.23,10.23,0,0,1-1.83,3.08,20.59,20.59,0,0,1-2.62,2.92,8.85,8.85,0,0,1,3.35,1,3.45,3.45,0,0,1,1.4,3.15v3.1a26,26,0,0,1-.1,3.25,5.71,5.71,0,0,1-2.15,2.25,13.7,13.7,0,0,0-2.1,1.35q-1.3,1.3-2.3,2.2l-6.5-5.5a11.34,11.34,0,0,0-1,2.35q-.1.55-.4,1.75a2.91,2.91,0,0,0,1.3,3.25,2.33,2.33,0,0,1,1-.45,1,1,0,0,1,.63.35q.38.35.38.55a1.18,1.18,0,0,1-.57.93,1.91,1.91,0,0,1-1.12.42,2.26,2.26,0,0,1-1.55-1,3.79,3.79,0,0,1-.95-1.8,10.68,10.68,0,0,1-.1-1.33,11.11,11.11,0,0,1,2-6.35l2.3-3.35a16.87,16.87,0,0,1,2.4-3q-4.1-1-4.1-3.85,0-2.3,2.8-4.75.9-.8,4.45-3.75l1.8,1.3q1.45,1.05,2.5,1.85a3.4,3.4,0,0,0,.6-1.8v-1.95a4.15,4.15,0,0,1,.88-2.52,2.54,2.54,0,0,1,2.08-1.18,2.6,2.6,0,0,1,1.42.48A1.3,1.3,0,0,1,448.72,193.47Zm-7.55,24.3v-7.1q0-1.1-1.65-1.55-.4-.1-1.28-.22l-1.33-.18q-1.4,1.5-2.15,2.35-1.55,1.75-1.55,2.55,2.15,1.8,6.45,5.3a5.54,5.54,0,0,0,.78-.58Q441,217.87,441.17,217.77Zm.25-15.45-4.5-3q-.85,0-1.57,1.25a4.47,4.47,0,0,0-.73,2.15,2.12,2.12,0,0,0,1.4,2.1,12.87,12.87,0,0,0,2.7.6Z" transform="translate(-196.43 -180.42)"/></svg>